<svg xmlns="http://www.w3.org/2000/svg" viewBox="0 0 78.39 75.76">
  <title>3</title>
  <g id="Layer_2" data-name="Layer 2">
    <g id="Layer_3" data-name="Layer 3">
      <g>
        <circle cx="64.39" cy="33.55" r="14" style="fill: #e4daef"/>
        <circle cx="35.12" cy="12" r="12" style="fill: #e4daef"/>
        <circle cx="20" cy="55.76" r="20" style="fill: #e4daef"/>
        <g>
          <rect x="23.19" y="61.38" width="24" height="6" style="fill: #b07fbe"/>
          <path d="M23.19,61.38h14a0,0,0,0,1,0,0v2a1,1,0,0,1-1,1h-13a0,0,0,0,1,0,0v-3A0,0,0,0,1,23.19,61.38Z" style="fill: #fff"/>
          <path d="M47.19,68.13h-24a.76.76,0,0,1-.75-.75v-6a.75.75,0,0,1,.75-.75h24a.75.75,0,0,1,.75.75v6A.76.76,0,0,1,47.19,68.13Zm-23.25-1.5h22.5v-4.5H23.94Z" style="fill: #2e1847"/>
          <path d="M7.19,55.38h56a0,0,0,0,1,0,0v3a3,3,0,0,1-3,3h-50a3,3,0,0,1-3-3v-3A0,0,0,0,1,7.19,55.38Z" style="fill: #b07fbe"/>
          <path d="M7.19,55.38h30a0,0,0,0,1,0,0v2a1,1,0,0,1-1,1h-29a0,0,0,0,1,0,0v-3A0,0,0,0,1,7.19,55.38Z" style="fill: #fff"/>
          <path d="M60.19,62.13h-50a3.75,3.75,0,0,1-3.75-3.75v-3a.75.75,0,0,1,.75-.75h56a.75.75,0,0,1,.75.75v3A3.75,3.75,0,0,1,60.19,62.13Zm-52.25-6v2.25a2.25,2.25,0,0,0,2.25,2.25h50a2.25,2.25,0,0,0,2.25-2.25V56.13Z" style="fill: #2e1847"/>
          <path d="M55.19,68.13h-40a.75.75,0,1,1,0-1.5h40a.75.75,0,0,1,0,1.5Z" style="fill: #2e1847"/>
          <path d="M10.19,7.38h50a3,3,0,0,1,3,3v45a0,0,0,0,1,0,0h-56a0,0,0,0,1,0,0v-45A3,3,0,0,1,10.19,7.38Z" style="fill: #b07fbe"/>
          <path d="M10.19,7.38h50a0,0,0,0,1,0,0v43a2,2,0,0,1-2,2h-51a0,0,0,0,1,0,0v-42A3,3,0,0,1,10.19,7.38Z" style="fill: #fff"/>
          <path d="M63.19,56.13h-56a.76.76,0,0,1-.75-.75v-45a3.75,3.75,0,0,1,3.75-3.75h50a3.75,3.75,0,0,1,3.75,3.75v45A.76.76,0,0,1,63.19,56.13ZM7.94,54.63h54.5V10.38a2.25,2.25,0,0,0-2.25-2.25h-50a2.25,2.25,0,0,0-2.25,2.25Z" style="fill: #2e1847"/>
          <rect x="13.19" y="13.38" width="44" height="18" rx="1" ry="1" style="fill: #b07fbe"/>
          <path d="M14.19,13.38h36a1,1,0,0,1,1,1v9a1,1,0,0,1-1,1h-37a0,0,0,0,1,0,0v-10A1,1,0,0,1,14.19,13.38Z" style="fill: #fff"/>
          <path d="M56.19,32.13h-42a1.76,1.76,0,0,1-1.75-1.75v-16a1.75,1.75,0,0,1,1.75-1.75h42a1.75,1.75,0,0,1,1.75,1.75v16A1.76,1.76,0,0,1,56.19,32.13Zm-42-18a.25.25,0,0,0-.25.25v16a.25.25,0,0,0,.25.25h42a.25.25,0,0,0,.25-.25v-16a.25.25,0,0,0-.25-.25Z" style="fill: #2e1847"/>
          <rect x="13.19" y="37.38" width="44" height="12" rx="1" ry="1" style="fill: #b07fbe"/>
          <path d="M14.19,37.38h36a1,1,0,0,1,1,1v3a1,1,0,0,1-1,1h-37a0,0,0,0,1,0,0v-4A1,1,0,0,1,14.19,37.38Z" style="fill: #fff"/>
          <path d="M56.19,50.13h-42a1.76,1.76,0,0,1-1.75-1.75v-10a1.75,1.75,0,0,1,1.75-1.75h42a1.75,1.75,0,0,1,1.75,1.75v10A1.76,1.76,0,0,1,56.19,50.13Zm-42-12a.25.25,0,0,0-.25.25v10a.25.25,0,0,0,.25.25h42a.25.25,0,0,0,.25-.25v-10a.25.25,0,0,0-.25-.25Z" style="fill: #2e1847"/>
          <rect x="39.19" y="27.38" width="32" height="44" rx="2" ry="2" style="fill: #b07fbe"/>
          <path d="M39.19,64.38h29a0,0,0,0,1,0,0v3a1,1,0,0,1-1,1h-28a0,0,0,0,1,0,0v-4A0,0,0,0,1,39.19,64.38Z" style="fill: #fff"/>
          <path d="M41.19,27.38h27a0,0,0,0,1,0,0v3a1,1,0,0,1-1,1h-28a0,0,0,0,1,0,0v-2A2,2,0,0,1,41.19,27.38Z" style="fill: #fff"/>
          <path d="M69.19,72.13h-28a2.75,2.75,0,0,1-2.75-2.75v-40a2.75,2.75,0,0,1,2.75-2.75h28a2.75,2.75,0,0,1,2.75,2.75v40A2.75,2.75,0,0,1,69.19,72.13Zm-28-44a1.25,1.25,0,0,0-1.25,1.25v40a1.25,1.25,0,0,0,1.25,1.25h28a1.25,1.25,0,0,0,1.25-1.25v-40a1.25,1.25,0,0,0-1.25-1.25Z" style="fill: #2e1847"/>
          <rect x="39.19" y="34.38" width="32" height="30" rx="2" ry="2" style="fill: #b07fbe"/>
          <path d="M41.19,34.38h27a0,0,0,0,1,0,0v26a1,1,0,0,1-1,1h-28a0,0,0,0,1,0,0v-25a2,2,0,0,1,2-2Z" style="fill: #fff"/>
          <path d="M69.19,65.13h-28a2.75,2.75,0,0,1-2.75-2.75v-26a2.75,2.75,0,0,1,2.75-2.75h28a2.75,2.75,0,0,1,2.75,2.75v26A2.75,2.75,0,0,1,69.19,65.13Zm-28-30a1.25,1.25,0,0,0-1.25,1.25v26a1.25,1.25,0,0,0,1.25,1.25h28a1.25,1.25,0,0,0,1.25-1.25v-26a1.25,1.25,0,0,0-1.25-1.25Z" style="fill: #2e1847"/>
          <circle cx="55.19" cy="30.88" r="1" style="fill: #2e1847"/>
          <circle cx="55.19" cy="67.88" r="1" style="fill: #2e1847"/>
          <circle cx="47.19" cy="67.88" r="1" style="fill: #2e1847"/>
          <circle cx="63.19" cy="67.88" r="1" style="fill: #2e1847"/>
          <rect x="44.19" y="39.38" width="22" height="9" rx="1" ry="1" style="fill: #b07fbe"/>
          <path d="M45.19,39.38h18a0,0,0,0,1,0,0v5a1,1,0,0,1-1,1h-18a0,0,0,0,1,0,0v-5A1,1,0,0,1,45.19,39.38Z" style="fill: #fff"/>
          <path d="M65.19,49.13h-20a1.76,1.76,0,0,1-1.75-1.75v-7a1.75,1.75,0,0,1,1.75-1.75h20a1.75,1.75,0,0,1,1.75,1.75v7A1.75,1.75,0,0,1,65.19,49.13Zm-20-9a.25.25,0,0,0-.25.25v7a.25.25,0,0,0,.25.25h20a.25.25,0,0,0,.25-.25v-7a.25.25,0,0,0-.25-.25Z" style="fill: #2e1847"/>
          <rect x="44.19" y="53.38" width="22" height="6" rx="1" ry="1" style="fill: #b07fbe"/>
          <path d="M45.19,53.38h18a0,0,0,0,1,0,0v2a1,1,0,0,1-1,1h-18a0,0,0,0,1,0,0v-2A1,1,0,0,1,45.19,53.38Z" style="fill: #fff"/>
          <path d="M65.19,60.13h-20a1.76,1.76,0,0,1-1.75-1.75v-4a1.75,1.75,0,0,1,1.75-1.75h20a1.75,1.75,0,0,1,1.75,1.75v4A1.75,1.75,0,0,1,65.19,60.13Zm-20-6a.25.25,0,0,0-.25.25v4a.25.25,0,0,0,.25.25h20a.25.25,0,0,0,.25-.25v-4a.25.25,0,0,0-.25-.25Z" style="fill: #2e1847"/>
          <path d="M71.2,10.37h-4a.75.75,0,0,1,0-1.5h4a.75.75,0,0,1,0,1.5Z" style="fill: #2e1847"/>
          <path d="M69.2,12.37a.74.74,0,0,1-.75-.75v-4a.75.75,0,0,1,1.5,0v4A.75.75,0,0,1,69.2,12.37Z" style="fill: #2e1847"/>
          <circle cx="69.2" cy="15.62" r="0.75" style="fill: #2e1847"/>
          <circle cx="69.2" cy="18.62" r="0.75" style="fill: #2e1847"/>
          <circle cx="69.2" cy="23.62" r="0.75" style="fill: #2e1847"/>
          <path d="M30.89,18.13H20.19a.75.75,0,0,1,0-1.5h10.7a.75.75,0,0,1,0,1.5Z" style="fill: #2e1847"/>
          <path d="M37.19,18.13h-2.3a.75.75,0,0,1,0-1.5h2.3a.75.75,0,0,1,0,1.5Z" style="fill: #2e1847"/>
        </g>
      </g>
    </g>
  </g>
</svg>
