<svg xmlns="http://www.w3.org/2000/svg" viewBox="0 0 80.5 80.5">
  <title>1</title>
  <g id="Layer_2" data-name="Layer 2">
    <g id="Layer_3" data-name="Layer 3">
      <g>
        <circle cx="38.75" cy="66.5" r="14" style="fill: #e4daef"/>
        <circle cx="12" cy="24.5" r="12" style="fill: #e4daef"/>
        <circle cx="60.5" cy="20" r="20" style="fill: #e4daef"/>
        <g>
          <path d="M70.75,73.25h-62a1,1,0,0,1-1-1v-51l12-12h51a1,1,0,0,1,1,1v62A1,1,0,0,1,70.75,73.25Z" style="fill: #b07fbe"/>
          <path d="M65.75,68.25h-58v-47l12-12h47v58A1,1,0,0,1,65.75,68.25Z" style="fill: #fff"/>
          <path d="M70.75,74h-62A1.75,1.75,0,0,1,7,72.25v-51a.75.75,0,0,1,.22-.53l12-12a.75.75,0,0,1,.53-.22h51a1.75,1.75,0,0,1,1.75,1.75v62A1.75,1.75,0,0,1,70.75,74ZM8.5,21.56V72.25a.25.25,0,0,0,.25.25h62a.25.25,0,0,0,.25-.25v-62a.25.25,0,0,0-.25-.25H20.06Z" style="fill: #2e1847"/>
          <path d="M58.75,61h-2a.75.75,0,0,1,0-1.5H58V58.25a.75.75,0,0,1,1.5,0v2A.75.75,0,0,1,58.75,61Z" style="fill: #2e1847"/>
          <path d="M53,61H49.2a.75.75,0,0,1,0-1.5H53A.75.75,0,0,1,53,61Zm-7.55,0H41.64a.75.75,0,0,1,0-1.5h3.78a.75.75,0,0,1,0,1.5Zm-7.56,0H34.08a.75.75,0,0,1,0-1.5h3.78a.75.75,0,0,1,0,1.5Zm-7.55,0H26.53a.75.75,0,0,1,0-1.5h3.78a.75.75,0,1,1,0,1.5Z" style="fill: #2e1847"/>
          <path d="M22.75,61h-2a.75.75,0,0,1-.75-.75v-2a.75.75,0,0,1,1.5,0V59.5h1.25a.75.75,0,0,1,0,1.5Z" style="fill: #2e1847"/>
          <path d="M20.75,55.22a.75.75,0,0,1-.75-.75V50.7a.75.75,0,0,1,1.5,0v3.77A.75.75,0,0,1,20.75,55.22Zm0-7.55a.76.76,0,0,1-.75-.75V43.14a.75.75,0,0,1,1.5,0v3.78A.76.76,0,0,1,20.75,47.67Zm0-7.56a.75.75,0,0,1-.75-.75V35.59a.75.75,0,0,1,1.5,0v3.77A.75.75,0,0,1,20.75,40.11Zm0-7.55a.76.76,0,0,1-.75-.75V28a.75.75,0,0,1,1.5,0v3.78A.76.76,0,0,1,20.75,32.56Z" style="fill: #2e1847"/>
          <path d="M20.75,25a.75.75,0,0,1-.75-.75v-2a.76.76,0,0,1,.75-.75h2a.75.75,0,0,1,0,1.5H21.5v1.25A.75.75,0,0,1,20.75,25Z" style="fill: #2e1847"/>
          <path d="M53,23H49.19a.75.75,0,0,1,0-1.5H53A.75.75,0,0,1,53,23Zm-7.55,0H41.64a.75.75,0,0,1,0-1.5h3.78a.75.75,0,0,1,0,1.5Zm-7.56,0H34.08a.75.75,0,0,1,0-1.5h3.78a.75.75,0,0,1,0,1.5Zm-7.55,0H26.53a.75.75,0,0,1,0-1.5h3.78a.75.75,0,1,1,0,1.5Z" style="fill: #2e1847"/>
          <path d="M58.75,25a.75.75,0,0,1-.75-.75V23H56.75a.75.75,0,0,1,0-1.5h2a.76.76,0,0,1,.75.75v2A.75.75,0,0,1,58.75,25Z" style="fill: #2e1847"/>
          <path d="M58.75,55.22a.75.75,0,0,1-.75-.75V50.7a.75.75,0,0,1,1.5,0v3.77A.75.75,0,0,1,58.75,55.22Zm0-7.55a.76.76,0,0,1-.75-.75V43.14a.75.75,0,0,1,1.5,0v3.78A.76.76,0,0,1,58.75,47.67Zm0-7.56a.75.75,0,0,1-.75-.75V35.59a.75.75,0,0,1,1.5,0v3.77A.75.75,0,0,1,58.75,40.11Zm0-7.55a.76.76,0,0,1-.75-.75V28a.75.75,0,0,1,1.5,0v3.78A.76.76,0,0,1,58.75,32.56Z" style="fill: #2e1847"/>
          <rect x="17.75" y="19.25" width="6" height="6" rx="1" ry="1" style="fill: #b07fbe"/>
          <path d="M18.75,19.25h3a0,0,0,0,1,0,0v3a1,1,0,0,1-1,1h-3a0,0,0,0,1,0,0v-3A1,1,0,0,1,18.75,19.25Z" style="fill: #fff"/>
          <path d="M22.75,26h-4A1.75,1.75,0,0,1,17,24.25v-4a1.75,1.75,0,0,1,1.75-1.75h4a1.76,1.76,0,0,1,1.75,1.75v4A1.76,1.76,0,0,1,22.75,26Zm-4-6a.25.25,0,0,0-.25.25v4a.25.25,0,0,0,.25.25h4a.25.25,0,0,0,.25-.25v-4a.25.25,0,0,0-.25-.25Z" style="fill: #2e1847"/>
          <rect x="55.75" y="19.25" width="6" height="6" rx="1" ry="1" style="fill: #b07fbe"/>
          <path d="M56.75,19.25h3a0,0,0,0,1,0,0v3a1,1,0,0,1-1,1h-3a0,0,0,0,1,0,0v-3A1,1,0,0,1,56.75,19.25Z" style="fill: #fff"/>
          <path d="M60.75,26h-4A1.76,1.76,0,0,1,55,24.25v-4a1.76,1.76,0,0,1,1.75-1.75h4a1.75,1.75,0,0,1,1.75,1.75v4A1.75,1.75,0,0,1,60.75,26Zm-4-6a.25.25,0,0,0-.25.25v4a.25.25,0,0,0,.25.25h4a.25.25,0,0,0,.25-.25v-4a.25.25,0,0,0-.25-.25Z" style="fill: #2e1847"/>
          <rect x="17.75" y="57.25" width="6" height="6" rx="1" ry="1" style="fill: #b07fbe"/>
          <path d="M18.75,57.25h3a0,0,0,0,1,0,0v3a1,1,0,0,1-1,1h-3a0,0,0,0,1,0,0v-3A1,1,0,0,1,18.75,57.25Z" style="fill: #fff"/>
          <path d="M22.75,64h-4A1.75,1.75,0,0,1,17,62.25v-4a1.75,1.75,0,0,1,1.75-1.75h4a1.76,1.76,0,0,1,1.75,1.75v4A1.75,1.75,0,0,1,22.75,64Zm-4-6a.25.25,0,0,0-.25.25v4a.25.25,0,0,0,.25.25h4a.25.25,0,0,0,.25-.25v-4a.25.25,0,0,0-.25-.25Z" style="fill: #2e1847"/>
          <rect x="55.75" y="57.25" width="6" height="6" rx="1" ry="1" style="fill: #b07fbe"/>
          <path d="M56.75,57.25h3a0,0,0,0,1,0,0v3a1,1,0,0,1-1,1h-3a0,0,0,0,1,0,0v-3A1,1,0,0,1,56.75,57.25Z" style="fill: #fff"/>
          <path d="M60.75,64h-4A1.75,1.75,0,0,1,55,62.25v-4a1.76,1.76,0,0,1,1.75-1.75h4a1.75,1.75,0,0,1,1.75,1.75v4A1.75,1.75,0,0,1,60.75,64Zm-4-6a.25.25,0,0,0-.25.25v4a.25.25,0,0,0,.25.25h4a.25.25,0,0,0,.25-.25v-4a.25.25,0,0,0-.25-.25Z" style="fill: #2e1847"/>
          <polygon points="7.75 21.25 19.75 9.25 19.75 21.25 7.75 21.25" style="fill: #b07fbe"/>
          <polygon points="7.75 21.25 19.75 9.25 14.75 21.25 7.75 21.25" style="fill: #fff"/>
          <path d="M19.75,22h-12a.74.74,0,0,1-.69-.46.76.76,0,0,1,.16-.82l12-12A.76.76,0,0,1,20,8.56a.74.74,0,0,1,.46.69v12A.75.75,0,0,1,19.75,22ZM9.56,20.5H19V11.06Z" style="fill: #2e1847"/>
          <polygon points="47.32 55.25 52.75 55.25 44.75 27.25 34.75 27.25 26.75 55.25 32.18 55.25 34.12 48.46 45.38 48.46 47.32 55.25" style="fill: #fff"/>
          <polygon points="26.75 55.25 32.18 55.25 32.71 53.25 27.32 53.25 26.75 55.25" style="fill: #b07fbe"/>
          <path d="M44.75,27.25H42.32l7.25,25.36a.5.5,0,0,1-.48.64H46.75l.57,2h5.43Z" style="fill: #b07fbe"/>
          <path d="M52.75,56H47.32a.75.75,0,0,1-.72-.54l-1.79-6.25H34.69L32.9,55.46a.75.75,0,0,1-.72.54H26.75a.75.75,0,0,1-.6-.3.72.72,0,0,1-.12-.65l8-28a.75.75,0,0,1,.72-.55h10a.75.75,0,0,1,.72.55l8,28a.72.72,0,0,1-.12.65A.74.74,0,0,1,52.75,56Zm-4.86-1.5h3.87L44.18,28H35.32L27.74,54.5h3.87l1.79-6.25a.75.75,0,0,1,.72-.54H45.38a.74.74,0,0,1,.72.54Z" style="fill: #2e1847"/>
          <polygon points="35.55 43.46 38.75 32.25 40.75 32.25 43.95 43.46 35.55 43.46" style="fill: #fff"/>
          <path d="M44,43.46l-3.2-11.21h-2l-.21.76,2.23,7.81a.5.5,0,0,1-.48.64H36.12l-.57,2Z" style="fill: #b07fbe"/>
          <path d="M44,44.21h-8.4a.75.75,0,0,1-.72-1L38,32.05a.75.75,0,0,1,.72-.55h2a.75.75,0,0,1,.72.55l3.2,11.2a.75.75,0,0,1-.72,1Zm-7.41-1.5H43L40.18,33h-.86Z" style="fill: #2e1847"/>
          <path d="M12.75,62a.75.75,0,0,1-.75-.75V47.55a.75.75,0,0,1,1.5,0v13.7A.74.74,0,0,1,12.75,62Z" style="fill: #2e1847"/>
          <path d="M12.75,44.3a.75.75,0,0,1-.75-.75v-2.3a.75.75,0,0,1,1.5,0v2.3A.74.74,0,0,1,12.75,44.3Z" style="fill: #2e1847"/>
          <path d="M66.75,47a.75.75,0,0,1-.75-.75v-9.7a.75.75,0,0,1,1.5,0v9.7A.75.75,0,0,1,66.75,47Z" style="fill: #2e1847"/>
          <path d="M66.75,33.3a.75.75,0,0,1-.75-.75v-2.3a.75.75,0,0,1,1.5,0v2.3A.75.75,0,0,1,66.75,33.3Z" style="fill: #2e1847"/>
        </g>
      </g>
    </g>
  </g>
</svg>
