<svg xmlns="http://www.w3.org/2000/svg" viewBox="0 0 74.39 76.75">
  <title>5</title>
  <g id="Layer_2" data-name="Layer 2">
    <g id="Layer_3" data-name="Layer 3">
      <g>
        <circle cx="60.39" cy="33.55" r="14" style="fill: #e4daef"/>
        <circle cx="32.12" cy="12" r="12" style="fill: #e4daef"/>
        <circle cx="20" cy="56.75" r="20" style="fill: #e4daef"/>
        <g>
          <path d="M31.08,6.75H14.38a.75.75,0,0,1,0-1.5h16.7a.75.75,0,0,1,0,1.5Z" style="fill: #2e1847"/>
          <path d="M37.38,6.75h-2.3a.75.75,0,0,1,0-1.5h2.3a.75.75,0,0,1,0,1.5Z" style="fill: #2e1847"/>
          <path d="M70.39,39.7h-4a.75.75,0,0,1,0-1.5h4a.75.75,0,0,1,0,1.5Z" style="fill: #2e1847"/>
          <path d="M68.39,41.7a.75.75,0,0,1-.75-.75V37a.75.75,0,0,1,1.5,0v4A.76.76,0,0,1,68.39,41.7Z" style="fill: #2e1847"/>
          <circle cx="68.39" cy="32.95" r="0.75" style="fill: #2e1847"/>
          <circle cx="68.39" cy="29.95" r="0.75" style="fill: #2e1847"/>
          <circle cx="68.39" cy="24.95" r="0.75" style="fill: #2e1847"/>
          <circle cx="68.39" cy="18.95" r="0.75" style="fill: #2e1847"/>
          <rect x="24.38" y="64.01" width="20" height="6" style="fill: #b07fbe"/>
          <path d="M24.38,64h17a0,0,0,0,1,0,0v2a1,1,0,0,1-1,1h-16a0,0,0,0,1,0,0V64A0,0,0,0,1,24.38,64Z" style="fill: #fff"/>
          <path d="M44.38,70.76h-20a.76.76,0,0,1-.75-.75V64a.75.75,0,0,1,.75-.75h20a.74.74,0,0,1,.75.75v6A.75.75,0,0,1,44.38,70.76Zm-19.25-1.5h18.5v-4.5H25.13Z" style="fill: #2e1847"/>
          <path d="M6.38,58h56a0,0,0,0,1,0,0v3a3,3,0,0,1-3,3h-50a3,3,0,0,1-3-3V58A0,0,0,0,1,6.38,58Z" style="fill: #b07fbe"/>
          <path d="M6.38,58h41a0,0,0,0,1,0,0v2a1,1,0,0,1-1,1h-40a0,0,0,0,1,0,0V58A0,0,0,0,1,6.38,58Z" style="fill: #fff"/>
          <path d="M59.38,64.76h-50A3.76,3.76,0,0,1,5.63,61V58a.75.75,0,0,1,.75-.75h56a.74.74,0,0,1,.75.75v3A3.76,3.76,0,0,1,59.38,64.76Zm-52.25-6V61a2.25,2.25,0,0,0,2.25,2.25h50A2.25,2.25,0,0,0,61.63,61V58.76Z" style="fill: #2e1847"/>
          <path d="M54.38,70.76h-40a.75.75,0,1,1,0-1.5h40a.75.75,0,1,1,0,1.5Z" style="fill: #2e1847"/>
          <path d="M9.38,10h50a3,3,0,0,1,3,3V58a0,0,0,0,1,0,0h-56a0,0,0,0,1,0,0V13A3,3,0,0,1,9.38,10Z" style="fill: #b07fbe"/>
          <path d="M9.38,10h50a0,0,0,0,1,0,0V53a2,2,0,0,1-2,2h-51a0,0,0,0,1,0,0V13A3,3,0,0,1,9.38,10Z" style="fill: #fff"/>
          <path d="M62.38,58.76h-56A.76.76,0,0,1,5.63,58V13A3.75,3.75,0,0,1,9.38,9.26h50A3.75,3.75,0,0,1,63.13,13V58A.75.75,0,0,1,62.38,58.76ZM7.13,57.26h54.5V13a2.25,2.25,0,0,0-2.25-2.25h-50A2.25,2.25,0,0,0,7.13,13Z" style="fill: #2e1847"/>
          <path d="M14.38,16h5a2,2,0,0,1,2,2v7a0,0,0,0,1,0,0h-9a0,0,0,0,1,0,0V18A2,2,0,0,1,14.38,16Z" style="fill: #b07fbe"/>
          <path d="M14.38,16h4a0,0,0,0,1,0,0v5a1,1,0,0,1-1,1h-5a0,0,0,0,1,0,0V18A2,2,0,0,1,14.38,16Z" style="fill: #fff"/>
          <path d="M21.38,25.76h-9a.76.76,0,0,1-.75-.75V18a2.75,2.75,0,0,1,2.75-2.75h5A2.75,2.75,0,0,1,22.13,18v7A.76.76,0,0,1,21.38,25.76Zm-8.25-1.5h7.5V18a1.25,1.25,0,0,0-1.25-1.25h-5A1.25,1.25,0,0,0,13.13,18Z" style="fill: #2e1847"/>
          <rect x="12.38" y="25.01" width="9" height="9" style="fill: #b07fbe"/>
          <path d="M12.38,25h6a0,0,0,0,1,0,0v5a1,1,0,0,1-1,1h-5a0,0,0,0,1,0,0V25A0,0,0,0,1,12.38,25Z" style="fill: #fff"/>
          <path d="M21.38,34.76h-9a.76.76,0,0,1-.75-.75V25a.75.75,0,0,1,.75-.75h9a.75.75,0,0,1,.75.75v9A.76.76,0,0,1,21.38,34.76Zm-8.25-1.5h7.5v-7.5h-7.5Z" style="fill: #2e1847"/>
          <rect x="12.38" y="34.01" width="9" height="9" style="fill: #b07fbe"/>
          <path d="M12.38,34h6a0,0,0,0,1,0,0v5a1,1,0,0,1-1,1h-5a0,0,0,0,1,0,0V34A0,0,0,0,1,12.38,34Z" style="fill: #fff"/>
          <path d="M21.38,43.76h-9a.76.76,0,0,1-.75-.75V34a.75.75,0,0,1,.75-.75h9a.75.75,0,0,1,.75.75v9A.76.76,0,0,1,21.38,43.76Zm-8.25-1.5h7.5v-7.5h-7.5Z" style="fill: #2e1847"/>
          <path d="M12.38,43h9a0,0,0,0,1,0,0v7a2,2,0,0,1-2,2h-5a2,2,0,0,1-2-2V43A0,0,0,0,1,12.38,43Z" style="fill: #b07fbe"/>
          <path d="M12.38,43h6a0,0,0,0,1,0,0v5a1,1,0,0,1-1,1h-5a0,0,0,0,1,0,0V43A0,0,0,0,1,12.38,43Z" style="fill: #fff"/>
          <path d="M19.38,52.76h-5A2.75,2.75,0,0,1,11.63,50V43a.75.75,0,0,1,.75-.75h9a.75.75,0,0,1,.75.75v7A2.75,2.75,0,0,1,19.38,52.76Zm-6.25-9V50a1.25,1.25,0,0,0,1.25,1.25h5A1.25,1.25,0,0,0,20.63,50V43.76Z" style="fill: #2e1847"/>
          <rect x="27.38" y="16.01" width="29" height="36" rx="2" ry="2" style="fill: #b07fbe"/>
          <path d="M29.38,16h24a0,0,0,0,1,0,0V48a1,1,0,0,1-1,1h-25a0,0,0,0,1,0,0V18A2,2,0,0,1,29.38,16Z" style="fill: #fff"/>
          <path d="M54.38,52.76h-25A2.75,2.75,0,0,1,26.63,50V18a2.75,2.75,0,0,1,2.75-2.75h25A2.75,2.75,0,0,1,57.13,18V50A2.75,2.75,0,0,1,54.38,52.76Zm-25-36A1.25,1.25,0,0,0,28.13,18V50a1.25,1.25,0,0,0,1.25,1.25h25A1.25,1.25,0,0,0,55.63,50V18a1.25,1.25,0,0,0-1.25-1.25Z" style="fill: #2e1847"/>
          <rect x="32.38" y="23" width="10" height="10" style="fill: #fff"/>
          <path d="M40.18,23a10,10,0,0,1-7.8,7.8V33h10V23Z" style="fill: #b07fbe"/>
          <path d="M42.38,33.75h-10a.75.75,0,0,1-.75-.75V23a.76.76,0,0,1,.75-.75h10a.75.75,0,0,1,.75.75V33A.74.74,0,0,1,42.38,33.75Zm-9.25-1.5h8.5v-8.5h-8.5Z" style="fill: #2e1847"/>
          <circle cx="43.38" cy="36" r="7" style="fill: #fff"/>
          <path d="M46.6,29.79A6.92,6.92,0,0,1,47.38,33a7,7,0,0,1-7,7,6.92,6.92,0,0,1-3.21-.78,7,7,0,1,0,9.43-9.43Z" style="fill: #b07fbe"/>
          <path d="M43.38,43.75A7.75,7.75,0,1,1,51.13,36,7.76,7.76,0,0,1,43.38,43.75Zm0-14A6.25,6.25,0,1,0,49.63,36,6.27,6.27,0,0,0,43.38,29.75Z" style="fill: #2e1847"/>
          <circle cx="37.38" cy="42.01" r="5" style="fill: #fff"/>
          <path d="M39.76,37.63A5,5,0,0,1,35.38,45,4.89,4.89,0,0,1,33,44.38a5,5,0,1,0,6.75-6.75Z" style="fill: #b07fbe"/>
          <path d="M37.38,47.76A5.75,5.75,0,1,1,43.13,42,5.76,5.76,0,0,1,37.38,47.76Zm0-10A4.25,4.25,0,1,0,41.63,42,4.25,4.25,0,0,0,37.38,37.76Z" style="fill: #2e1847"/>
          <circle cx="49.38" cy="23" r="2" style="fill: #fff"/>
          <path d="M49.38,25.75A2.75,2.75,0,1,1,52.13,23,2.75,2.75,0,0,1,49.38,25.75Zm0-4A1.25,1.25,0,1,0,50.63,23,1.25,1.25,0,0,0,49.38,21.75Z" style="fill: #2e1847"/>
          <path d="M51.39,48h12a1,1,0,0,1,1,1V66a4,4,0,0,1-4,4h-6a4,4,0,0,1-4-4V49A1,1,0,0,1,51.39,48Z" style="fill: #b07fbe"/>
          <path d="M51.38,48h10a0,0,0,0,1,0,0V65a2,2,0,0,1-2,2h-6a3,3,0,0,1-3-3V49A1,1,0,0,1,51.38,48Z" style="fill: #fff"/>
          <path d="M60.39,70.76h-6A4.75,4.75,0,0,1,49.64,66V49a1.75,1.75,0,0,1,1.75-1.75h12A1.75,1.75,0,0,1,65.14,49V66A4.75,4.75,0,0,1,60.39,70.76Zm-9-22a.25.25,0,0,0-.25.25V66a3.25,3.25,0,0,0,3.25,3.25h6A3.26,3.26,0,0,0,63.64,66V49a.25.25,0,0,0-.25-.25Z" style="fill: #2e1847"/>
          <path d="M66.39,66.76h-2a.75.75,0,0,1-.75-.75V52a.74.74,0,0,1,.75-.75h2A4.75,4.75,0,0,1,71.14,56v6A4.75,4.75,0,0,1,66.39,66.76Zm-1.25-1.5h1.25A3.26,3.26,0,0,0,69.64,62V56a3.25,3.25,0,0,0-3.25-3.25H65.14Z" style="fill: #2e1847"/>
        </g>
      </g>
    </g>
  </g>
</svg>
