<svg xmlns="http://www.w3.org/2000/svg" viewBox="0 0 79 74">
  <title>4</title>
  <g id="Layer_2" data-name="Layer 2">
    <g id="Layer_3" data-name="Layer 3">
      <g>
        <circle cx="31" cy="14" r="14" style="fill: #e4daef"/>
        <circle cx="67" cy="41" r="12" style="fill: #e4daef"/>
        <circle cx="20" cy="54" r="20" style="fill: #e4daef"/>
        <path d="M10,11H68a3,3,0,0,1,3,3V55a0,0,0,0,1,0,0H7a0,0,0,0,1,0,0V14A3,3,0,0,1,10,11Z" style="fill: #fff"/>
        <path d="M71,55H27A36,36,0,0,1,63,19h8Z" style="fill: #b07fbe"/>
        <polygon points="52 67 26 67 29.96 61 48.05 61 52 67" style="fill: #fff"/>
        <polygon points="52 67 33 67 36.96 61 48.05 61 52 67" style="fill: #b07fbe"/>
        <path d="M7,55H71a0,0,0,0,1,0,0v3a3,3,0,0,1-3,3H10a3,3,0,0,1-3-3V55A0,0,0,0,1,7,55Z" style="fill: #fff"/>
        <path d="M19,55H71a0,0,0,0,1,0,0v3a3,3,0,0,1-3,3H22a3,3,0,0,1-3-3V55A0,0,0,0,1,19,55Z" style="fill: #b07fbe"/>
        <path d="M71,55.75H7A.75.75,0,0,1,6.25,55V14A3.76,3.76,0,0,1,10,10.25H68A3.75,3.75,0,0,1,71.75,14V55A.74.74,0,0,1,71,55.75ZM7.75,54.25h62.5V14A2.25,2.25,0,0,0,68,11.75H10A2.25,2.25,0,0,0,7.75,14Z" style="fill: #2e1847"/>
        <path d="M52,67.75H26a.76.76,0,0,1-.66-.39.74.74,0,0,1,0-.77l3.95-6a.75.75,0,0,1,.63-.34H48.05a.77.77,0,0,1,.63.34l4,6a.76.76,0,0,1,0,.77A.75.75,0,0,1,52,67.75Zm-24.6-1.5H50.61l-3-4.5H30.36Z" style="fill: #2e1847"/>
        <path d="M59,67.75H19a.75.75,0,0,1,0-1.5H59a.75.75,0,0,1,0,1.5Z" style="fill: #2e1847"/>
        <circle cx="39" cy="58" r="0.75" style="fill: #2e1847"/>
        <path d="M68,61.75H10A3.76,3.76,0,0,1,6.25,58V55A.76.76,0,0,1,7,54.25H71a.75.75,0,0,1,.75.75v3A3.75,3.75,0,0,1,68,61.75Zm-60.25-6V58A2.25,2.25,0,0,0,10,60.25H68A2.25,2.25,0,0,0,70.25,58V55.75Z" style="fill: #2e1847"/>
        <path d="M32,37s6.54-.09,10.79-2.63c2.39-1.43,4.56-3.83,3.93-7.24-.41-.45-1.31-1.34-2.23-2.26A40.87,40.87,0,0,1,32,37Z" style="fill: #fff"/>
        <path d="M33,30.32A30.11,30.11,0,0,0,32,37,40.87,40.87,0,0,0,44.49,24.87l-2.61-2.58C36.69,21.33,34.09,26.18,33,30.32Z" style="fill: #fff"/>
        <path d="M45.08,18.25l5.67,5.67C56.47,19.12,66.25,9.89,66,3,59.12,2.76,49.88,12.53,45.08,18.25Z" style="fill: #fff"/>
        <path d="M44.3,25.17a1.36,1.36,0,0,0-.17-.17c-5.19-1-7.79,3.89-8.91,8-.19.7-.34,1.4-.47,2.07A40.14,40.14,0,0,0,44.3,25.17Z" style="fill: #b07fbe"/>
        <path d="M41.87,22.28l4.85,4.85s1.68-1.23,4-3.21l-5.67-5.67C43.1,20.61,41.87,22.28,41.87,22.28Z" style="fill: #fff"/>
        <path d="M63.63,10.08c-5.11.71-11.19,6.06-15.79,10.94l2.91,2.9C54.65,20.65,60.43,15.32,63.63,10.08Z" style="fill: #b07fbe"/>
        <path d="M49.1,25.28,46.86,23a1,1,0,0,0-1.49.08c-.45.55-.85,1-1.19,1.48l2.54,2.54S47.66,26.45,49.1,25.28Z" style="fill: #b07fbe"/>
        <path d="M32,37.75a.75.75,0,0,1-.72-.53.77.77,0,0,1,.32-.85,40.24,40.24,0,0,0,12.26-11.9.73.73,0,0,1,.54-.34.78.78,0,0,1,.62.21c.92.92,1.83,1.83,2.25,2.27a.91.91,0,0,1,.19.38c.58,3.17-.94,6-4.28,8C38.8,37.63,32.29,37.75,32,37.75Zm12.61-11.7a41.76,41.76,0,0,1-9.85,10,20.74,20.74,0,0,0,7.64-2.3c1.92-1.15,4.08-3.16,3.62-6.26Z" style="fill: #2e1847"/>
        <path d="M32,37.75a.75.75,0,0,1-.75-.76,30.87,30.87,0,0,1,1-6.87c1.7-6.28,5.26-9.4,9.77-8.57a.79.79,0,0,1,.39.21l1.38,1.37L45,24.34a.74.74,0,0,1,.1.93A41.63,41.63,0,0,1,32.41,37.63.78.78,0,0,1,32,37.75Zm8.61-14.83c-4.2,0-6.12,4.65-6.92,7.6h0a29.36,29.36,0,0,0-.85,5A40.49,40.49,0,0,0,43.53,25l-.79-.79L41.52,23A5.84,5.84,0,0,0,40.61,22.92ZM33,30.32h0Z" style="fill: #2e1847"/>
        <path d="M50.75,24.67a.74.74,0,0,1-.53-.22l-5.67-5.67a.74.74,0,0,1,0-1C49.46,11.87,58.9,2,66,2.26a.75.75,0,0,1,.72.72C67,10.16,57.14,19.54,51.23,24.5A.72.72,0,0,1,50.75,24.67ZM46.1,18.21l4.69,4.7C59.68,15.35,64.87,8.46,65.23,3.77,60.54,4.13,53.65,9.32,46.1,18.21Z" style="fill: #2e1847"/>
        <path d="M46.72,27.88a.74.74,0,0,1-.53-.22l-4.85-4.85a.75.75,0,0,1-.07-1s1.27-1.72,3.24-4.07a.75.75,0,0,1,.54-.27.74.74,0,0,1,.56.22l5.67,5.67a.75.75,0,0,1-.05,1.11c-2.34,2-4,3.22-4.06,3.24A.8.8,0,0,1,46.72,27.88Zm-3.86-5.67,3.93,3.93c.58-.44,1.59-1.23,2.85-2.27l-4.51-4.5C44.09,20.62,43.3,21.64,42.86,22.21Z" style="fill: #2e1847"/>
        <path d="M62,49.75H28a6.75,6.75,0,0,1,0-13.5h4a.75.75,0,0,1,0,1.5H28a5.25,5.25,0,0,0,0,10.5H62a3.25,3.25,0,0,0,0-6.5H54a4.75,4.75,0,0,1,0-9.5h8a3.25,3.25,0,1,0,0-6.5H57a.75.75,0,0,1,0-1.5h5a4.75,4.75,0,0,1,0,9.5H54a3.25,3.25,0,0,0,0,6.5h8a4.75,4.75,0,0,1,0,9.5Z" style="fill: #2e1847"/>
        <rect x="11" y="15" width="6" height="6" rx="1" ry="1" style="fill: #fff"/>
        <rect x="11" y="25" width="6" height="6" rx="1" ry="1" style="fill: #fff"/>
        <rect x="11" y="35" width="6" height="6" rx="1" ry="1" style="fill: #fff"/>
        <rect x="11" y="45" width="6" height="6" rx="1" ry="1" style="fill: #fff"/>
        <path d="M14.5,17.5h2a0,0,0,0,1,0,0v3a0,0,0,0,1,0,0h-3a0,0,0,0,1,0,0v-2A1,1,0,0,1,14.5,17.5Z" style="fill: #b07fbe"/>
        <path d="M14.5,27.5h2a0,0,0,0,1,0,0v3a0,0,0,0,1,0,0h-3a0,0,0,0,1,0,0v-2A1,1,0,0,1,14.5,27.5Z" style="fill: #b07fbe"/>
        <path d="M14.5,37.5h2a0,0,0,0,1,0,0v3a0,0,0,0,1,0,0h-3a0,0,0,0,1,0,0v-2A1,1,0,0,1,14.5,37.5Z" style="fill: #b07fbe"/>
        <path d="M14.5,47.5h2a0,0,0,0,1,0,0v3a0,0,0,0,1,0,0h-3a0,0,0,0,1,0,0v-2A1,1,0,0,1,14.5,47.5Z" style="fill: #b07fbe"/>
        <path d="M16,21.75H12A1.75,1.75,0,0,1,10.25,20V16A1.76,1.76,0,0,1,12,14.25h4A1.75,1.75,0,0,1,17.75,16v4A1.75,1.75,0,0,1,16,21.75Zm-4-6a.25.25,0,0,0-.25.25v4a.25.25,0,0,0,.25.25h4a.25.25,0,0,0,.25-.25V16a.25.25,0,0,0-.25-.25Z" style="fill: #2e1847"/>
        <path d="M16,31.75H12A1.75,1.75,0,0,1,10.25,30V26A1.76,1.76,0,0,1,12,24.25h4A1.75,1.75,0,0,1,17.75,26v4A1.75,1.75,0,0,1,16,31.75Zm-4-6a.26.26,0,0,0-.25.25v4a.25.25,0,0,0,.25.25h4a.25.25,0,0,0,.25-.25V26a.25.25,0,0,0-.25-.25Z" style="fill: #2e1847"/>
        <path d="M16,41.75H12A1.75,1.75,0,0,1,10.25,40V36A1.76,1.76,0,0,1,12,34.25h4A1.75,1.75,0,0,1,17.75,36v4A1.75,1.75,0,0,1,16,41.75Zm-4-6a.26.26,0,0,0-.25.25v4a.25.25,0,0,0,.25.25h4a.25.25,0,0,0,.25-.25V36a.25.25,0,0,0-.25-.25Z" style="fill: #2e1847"/>
        <path d="M16,51.75H12A1.75,1.75,0,0,1,10.25,50V46A1.76,1.76,0,0,1,12,44.25h4A1.75,1.75,0,0,1,17.75,46v4A1.75,1.75,0,0,1,16,51.75Zm-4-6a.26.26,0,0,0-.25.25v4a.25.25,0,0,0,.25.25h4a.25.25,0,0,0,.25-.25V46a.25.25,0,0,0-.25-.25Z" style="fill: #2e1847"/>
        <path d="M45.38,7.75A.75.75,0,0,1,44.63,7V3a.75.75,0,0,1,1.5,0V7A.75.75,0,0,1,45.38,7.75Z" style="fill: #2e1847"/>
        <path d="M47.38,5.75h-4a.75.75,0,0,1,0-1.5h4a.75.75,0,0,1,0,1.5Z" style="fill: #2e1847"/>
        <circle cx="39.38" cy="5" r="0.75" style="fill: #2e1847"/>
        <circle cx="36.38" cy="5" r="0.75" style="fill: #2e1847"/>
        <circle cx="32.38" cy="5" r="0.75" style="fill: #2e1847"/>
        <circle cx="26.38" cy="5" r="0.75" style="fill: #2e1847"/>
        <path d="M23.5,30H22a.75.75,0,0,1,0-1.5h1.5a.75.75,0,0,1,0,1.5Z" style="fill: #2e1847"/>
        <path d="M28.5,30H27a.75.75,0,0,1,0-1.5h1.5a.75.75,0,0,1,0,1.5Z" style="fill: #2e1847"/>
        <path d="M25.25,33.25a.75.75,0,0,1-.75-.75V31A.75.75,0,0,1,26,31v1.5A.74.74,0,0,1,25.25,33.25Z" style="fill: #2e1847"/>
        <path d="M25.25,28.25a.75.75,0,0,1-.75-.75V26A.75.75,0,0,1,26,26v1.5A.74.74,0,0,1,25.25,28.25Z" style="fill: #2e1847"/>
        <path d="M29.5,19H28a.75.75,0,0,1,0-1.5h1.5a.75.75,0,0,1,0,1.5Z" style="fill: #2e1847"/>
        <path d="M34.5,19H33a.75.75,0,0,1,0-1.5h1.5a.75.75,0,0,1,0,1.5Z" style="fill: #2e1847"/>
        <path d="M31.25,22.25a.75.75,0,0,1-.75-.75V20A.75.75,0,0,1,32,20v1.5A.74.74,0,0,1,31.25,22.25Z" style="fill: #2e1847"/>
        <path d="M31.25,17.25a.75.75,0,0,1-.75-.75V15A.75.75,0,0,1,32,15v1.5A.74.74,0,0,1,31.25,17.25Z" style="fill: #2e1847"/>
      </g>
    </g>
  </g>
</svg>
