<svg xmlns="http://www.w3.org/2000/svg" viewBox="0 0 77.39 75.75">
  <title>2</title>
  <g id="Layer_2" data-name="Layer 2">
    <g id="Layer_3" data-name="Layer 3">
      <g>
        <circle cx="63.39" cy="34.55" r="14" style="fill: #e4daef"/>
        <circle cx="32.12" cy="12" r="12" style="fill: #e4daef"/>
        <circle cx="20" cy="55.75" r="20" style="fill: #e4daef"/>
        <g>
          <path d="M8.7,11.38h58a3,3,0,0,1,3,3v43a0,0,0,0,1,0,0H5.7a0,0,0,0,1,0,0v-43A3,3,0,0,1,8.7,11.38Z" style="fill: #b07fbe"/>
          <path d="M8.7,11.38h58a0,0,0,0,1,0,0v39a4,4,0,0,1-4,4H5.7a0,0,0,0,1,0,0v-40A3,3,0,0,1,8.7,11.38Z" style="fill: #fff"/>
          <path d="M69.7,58.13H5.7A.75.75,0,0,1,5,57.38v-43A3.75,3.75,0,0,1,8.7,10.63h58a3.76,3.76,0,0,1,3.75,3.75v43A.76.76,0,0,1,69.7,58.13ZM6.45,56.63H69V14.38a2.25,2.25,0,0,0-2.25-2.25H8.7a2.25,2.25,0,0,0-2.25,2.25Z" style="fill: #2e1847"/>
          <rect x="23.7" y="63.38" width="28" height="6" style="fill: #b07fbe"/>
          <path d="M23.7,63.38h25a0,0,0,0,1,0,0v2a1,1,0,0,1-1,1h-24a0,0,0,0,1,0,0v-3A0,0,0,0,1,23.7,63.38Z" style="fill: #fff"/>
          <path d="M51.7,70.13h-28a.75.75,0,0,1-.75-.75v-6a.74.74,0,0,1,.75-.75h28a.75.75,0,0,1,.75.75v6A.76.76,0,0,1,51.7,70.13Zm-27.25-1.5H51v-4.5H24.45Z" style="fill: #2e1847"/>
          <path d="M5.7,57.38h64a0,0,0,0,1,0,0v3a3,3,0,0,1-3,3H8.7a3,3,0,0,1-3-3v-3A0,0,0,0,1,5.7,57.38Z" style="fill: #b07fbe"/>
          <path d="M5.7,57.38h60a0,0,0,0,1,0,0v2a1,1,0,0,1-1,1H5.7a0,0,0,0,1,0,0v-3A0,0,0,0,1,5.7,57.38Z" style="fill: #fff"/>
          <path d="M66.7,64.13H8.7A3.75,3.75,0,0,1,5,60.38v-3a.74.74,0,0,1,.75-.75h64a.75.75,0,0,1,.75.75v3A3.76,3.76,0,0,1,66.7,64.13Zm-60.25-6v2.25A2.25,2.25,0,0,0,8.7,62.63h58A2.25,2.25,0,0,0,69,60.38V58.13Z" style="fill: #2e1847"/>
          <path d="M61.7,70.13h-48a.75.75,0,0,1,0-1.5h48a.75.75,0,0,1,0,1.5Z" style="fill: #2e1847"/>
          <circle cx="37.7" cy="60.38" r="1" style="fill: #2e1847"/>
          <path d="M5.7,17.38h6a2,2,0,0,1,2,2v6a0,0,0,0,1,0,0h-8a0,0,0,0,1,0,0v-8A0,0,0,0,1,5.7,17.38Z" style="fill: #b07fbe"/>
          <path d="M5.7,17.38H11a0,0,0,0,1,0,0v4.33a1,1,0,0,1-1,1H5.7a0,0,0,0,1,0,0V17.38A0,0,0,0,1,5.7,17.38Z" style="fill: #fff"/>
          <path d="M13.7,26.13h-8A.75.75,0,0,1,5,25.38v-8a.74.74,0,0,1,.75-.75h6a2.75,2.75,0,0,1,2.75,2.75v6A.76.76,0,0,1,13.7,26.13Zm-7.25-1.5H13V19.38a1.26,1.26,0,0,0-1.25-1.25H6.45Z" style="fill: #2e1847"/>
          <rect x="5.7" y="25.38" width="8" height="8" style="fill: #b07fbe"/>
          <path d="M5.7,25.38H11a0,0,0,0,1,0,0v4.33a1,1,0,0,1-1,1H5.7a0,0,0,0,1,0,0V25.38A0,0,0,0,1,5.7,25.38Z" style="fill: #fff"/>
          <path d="M13.7,34.13h-8A.75.75,0,0,1,5,33.38v-8a.74.74,0,0,1,.75-.75h8a.75.75,0,0,1,.75.75v8A.76.76,0,0,1,13.7,34.13Zm-7.25-1.5H13v-6.5H6.45Z" style="fill: #2e1847"/>
          <rect x="5.7" y="33.38" width="8" height="8" style="fill: #b07fbe"/>
          <path d="M5.7,33.38H11a0,0,0,0,1,0,0v4.33a1,1,0,0,1-1,1H5.7a0,0,0,0,1,0,0V33.38A0,0,0,0,1,5.7,33.38Z" style="fill: #fff"/>
          <path d="M13.7,42.13h-8A.75.75,0,0,1,5,41.38v-8a.74.74,0,0,1,.75-.75h8a.75.75,0,0,1,.75.75v8A.76.76,0,0,1,13.7,42.13Zm-7.25-1.5H13v-6.5H6.45Z" style="fill: #2e1847"/>
          <path d="M5.7,41.38h8a0,0,0,0,1,0,0v6a2,2,0,0,1-2,2h-6a0,0,0,0,1,0,0v-8A0,0,0,0,1,5.7,41.38Z" style="fill: #b07fbe"/>
          <path d="M5.7,41.38H11a0,0,0,0,1,0,0v4.33a1,1,0,0,1-1,1H5.7a0,0,0,0,1,0,0V41.38A0,0,0,0,1,5.7,41.38Z" style="fill: #fff"/>
          <path d="M11.7,50.13h-6A.75.75,0,0,1,5,49.38v-8a.74.74,0,0,1,.75-.75h8a.75.75,0,0,1,.75.75v6A2.75,2.75,0,0,1,11.7,50.13Zm-5.25-1.5H11.7A1.26,1.26,0,0,0,13,47.38V42.13H6.45Z" style="fill: #2e1847"/>
          <rect x="18.69" y="17.38" width="30" height="34" style="fill: #b07fbe"/>
          <path d="M18.69,17.38h27a0,0,0,0,1,0,0v26a2,2,0,0,1-2,2h-25a0,0,0,0,1,0,0v-28A0,0,0,0,1,18.69,17.38Z" style="fill: #fff"/>
          <path d="M48.69,52.13h-30a.76.76,0,0,1-.75-.75v-34a.75.75,0,0,1,.75-.75h30a.74.74,0,0,1,.75.75v34A.75.75,0,0,1,48.69,52.13Zm-29.25-1.5h28.5V18.13H19.44Z" style="fill: #2e1847"/>
          <path d="M25,30.88a2.06,2.06,0,0,1-.4-4.09,1.81,1.81,0,0,1-.22-.87,1.74,1.74,0,0,1,2.92-1.29,3.16,3.16,0,0,1,6.29.41,2.78,2.78,0,0,1-.06.58,2.51,2.51,0,0,1,.55-.06,2.66,2.66,0,1,1,0,5.32Z" style="fill: #fff"/>
          <path d="M34.08,25.56a2.51,2.51,0,0,0-.55.06,2.78,2.78,0,0,0,.06-.58,3.15,3.15,0,0,0-6.08-1.15A3.16,3.16,0,0,1,30.59,27a2.78,2.78,0,0,1-.06.58,2.51,2.51,0,0,1,.55-.06,2.66,2.66,0,0,1,2.66,2.66,2.84,2.84,0,0,1-.09.66h.43a2.66,2.66,0,1,0,0-5.32Z" style="fill: #b07fbe"/>
          <path d="M34.08,31.63H25a2.82,2.82,0,0,1-1.34-5.3,2.73,2.73,0,0,1,0-.41,2.5,2.5,0,0,1,2.5-2.5,2.75,2.75,0,0,1,.7.1,3.91,3.91,0,0,1,7.5,1.3,3.41,3.41,0,0,1-.25,6.81Zm-7.95-6.71a1,1,0,0,0-1,1,1,1,0,0,0,.13.5.77.77,0,0,1,0,.68.73.73,0,0,1-.54.42A1.32,1.32,0,0,0,25,30.13h9.08a1.91,1.91,0,1,0-.39-3.78.75.75,0,0,1-.89-.87,3.13,3.13,0,0,0,0-.44,2.41,2.41,0,0,0-4.79-.32.75.75,0,0,1-1.25.46A1,1,0,0,0,26.13,24.92Z" style="fill: #2e1847"/>
          <polygon points="28.2 35.38 18.69 51.38 37.7 51.38 28.2 35.38" style="fill: #b07fbe"/>
          <polygon points="28.2 35.38 18.69 51.38 25.69 51.38 28.2 35.38" style="fill: #fff"/>
          <path d="M37.7,52.13h-19a.76.76,0,0,1-.65-.38.75.75,0,0,1,0-.75l9.5-16a.76.76,0,0,1,.65-.37h0a.74.74,0,0,1,.64.37l9.5,16a.75.75,0,0,1,0,.75A.78.78,0,0,1,37.7,52.13ZM20,50.63H36.38L28.2,36.85Z" style="fill: #2e1847"/>
          <polygon points="36.55 41.03 30.41 51.38 42.7 51.38 36.55 41.03" style="fill: #b07fbe"/>
          <polygon points="36.55 41.03 30.41 51.38 35.7 51.38 36.55 41.03" style="fill: #fff"/>
          <path d="M42.7,52.13H30.41A.76.76,0,0,1,29.76,51l6.15-10.35a.78.78,0,0,1,1.29,0L43.34,51a.75.75,0,0,1,0,.75A.76.76,0,0,1,42.7,52.13Zm-11-1.5h9.65L36.55,42.5Z" style="fill: #2e1847"/>
          <path d="M24.39,8.13H12.7a.75.75,0,1,1,0-1.5H24.39a.75.75,0,0,1,0,1.5Z" style="fill: #2e1847"/>
          <path d="M30.7,8.13H28.4a.75.75,0,1,1,0-1.5h2.3a.75.75,0,0,1,0,1.5Z" style="fill: #2e1847"/>
          <rect x="40.7" y="5.38" width="23" height="34" rx="2" ry="2" style="fill: #b07fbe"/>
          <path d="M42.7,5.38h18.5a0,0,0,0,1,0,0v27.5a3.5,3.5,0,0,1-3.5,3.5h-17a0,0,0,0,1,0,0v-29A2,2,0,0,1,42.7,5.38Z" style="fill: #fff"/>
          <path d="M61.7,40.13h-19A2.75,2.75,0,0,1,40,37.38v-30A2.75,2.75,0,0,1,42.7,4.63h19a2.75,2.75,0,0,1,2.75,2.75v30A2.76,2.76,0,0,1,61.7,40.13Zm-19-34a1.25,1.25,0,0,0-1.25,1.25v30a1.25,1.25,0,0,0,1.25,1.25h19A1.25,1.25,0,0,0,63,37.38v-30A1.25,1.25,0,0,0,61.7,6.13Z" style="fill: #2e1847"/>
          <path d="M60.2,12.63h-16a.75.75,0,0,1,0-1.5h16a.75.75,0,0,1,0,1.5Z" style="fill: #2e1847"/>
          <path d="M60.2,19.63h-16a.75.75,0,0,1,0-1.5h16a.75.75,0,0,1,0,1.5Z" style="fill: #2e1847"/>
          <path d="M60.2,26.63h-16a.75.75,0,0,1,0-1.5h16a.75.75,0,0,1,0,1.5Z" style="fill: #2e1847"/>
          <path d="M60.2,33.63h-16a.75.75,0,0,1,0-1.5h16a.75.75,0,0,1,0,1.5Z" style="fill: #2e1847"/>
          <circle cx="46.7" cy="11.85" r="2.5" style="fill: #fff"/>
          <path d="M46.7,15.1A3.25,3.25,0,1,1,50,11.85,3.25,3.25,0,0,1,46.7,15.1Zm0-5a1.75,1.75,0,1,0,1.75,1.75A1.75,1.75,0,0,0,46.7,10.1Z" style="fill: #2e1847"/>
          <circle cx="55.7" cy="18.85" r="2.5" style="fill: #fff"/>
          <path d="M55.7,22.1A3.25,3.25,0,1,1,59,18.85,3.24,3.24,0,0,1,55.7,22.1Zm0-5a1.75,1.75,0,1,0,1.75,1.75A1.75,1.75,0,0,0,55.7,17.1Z" style="fill: #2e1847"/>
          <circle cx="49.7" cy="25.85" r="2.5" style="fill: #fff"/>
          <path d="M49.7,29.1A3.25,3.25,0,1,1,53,25.85,3.24,3.24,0,0,1,49.7,29.1Zm0-5a1.75,1.75,0,1,0,1.75,1.75A1.75,1.75,0,0,0,49.7,24.1Z" style="fill: #2e1847"/>
          <circle cx="57.7" cy="32.85" r="2.5" style="fill: #fff"/>
          <path d="M57.7,36.1A3.25,3.25,0,1,1,61,32.85,3.24,3.24,0,0,1,57.7,36.1Zm0-5a1.75,1.75,0,1,0,1.75,1.75A1.75,1.75,0,0,0,57.7,31.1Z" style="fill: #2e1847"/>
          <polygon points="53.7 44.38 63.7 47.81 59.15 49.83 57.13 54.38 53.7 44.38" style="fill: #fff"/>
          <path d="M57.13,55.13h0a.77.77,0,0,1-.67-.51L53,44.62a.72.72,0,0,1,.18-.77.75.75,0,0,1,.77-.18l10,3.43A.76.76,0,0,1,64,48.5l-4.28,1.9-1.91,4.28A.75.75,0,0,1,57.13,55.13ZM54.9,45.59l2.32,6.74,1.24-2.8a.74.74,0,0,1,.38-.38l2.81-1.25Z" style="fill: #2e1847"/>
        </g>
      </g>
    </g>
  </g>
</svg>
