<svg xmlns="http://www.w3.org/2000/svg" viewBox="0 0 78 80">
  <title>6</title>
  <g id="Layer_2" data-name="Layer 2">
    <g id="Layer_3" data-name="Layer 3">
      <g>
        <circle cx="63" cy="24.75" r="15" style="fill: #e4daef"/>
        <circle cx="30" cy="67" r="13" style="fill: #e4daef"/>
        <circle cx="21" cy="21" r="21" style="fill: #e4daef"/>
        <path d="M58,72H10a2,2,0,0,1-2-2V18L18,8H58a2,2,0,0,1,2,2V70A2,2,0,0,1,58,72Z" style="fill: #fff"/>
        <path d="M40,38H58a2,2,0,0,1,2,2V70a2,2,0,0,1-2,2H16a2,2,0,0,1-2-2V64A26,26,0,0,1,40,38Z" style="fill: #b07fbe"/>
        <path d="M58,72.75H10A2.75,2.75,0,0,1,7.25,70V18a.75.75,0,0,1,.22-.53l10-10A.75.75,0,0,1,18,7.25H58A2.75,2.75,0,0,1,60.75,10V70A2.75,2.75,0,0,1,58,72.75ZM8.75,18.31V70A1.25,1.25,0,0,0,10,71.25H58A1.25,1.25,0,0,0,59.25,70V10A1.25,1.25,0,0,0,58,8.75H18.31Z" style="fill: #2e1847"/>
        <rect x="23" y="25" width="12" height="36" style="fill: #fff"/>
        <path d="M29,31h6a0,0,0,0,1,0,0V61a0,0,0,0,1,0,0H27a0,0,0,0,1,0,0V33A2,2,0,0,1,29,31Z" style="fill: #b07fbe"/>
        <path d="M35,61.75H23a.75.75,0,0,1-.75-.75V25a.76.76,0,0,1,.75-.75H35a.76.76,0,0,1,.75.75V61A.75.75,0,0,1,35,61.75Zm-11.25-1.5h10.5V25.75H23.75Z" style="fill: #2e1847"/>
        <polygon points="8 18 18 8 18 18 8 18" style="fill: #fff"/>
        <polygon points="12 18 18 12 18 18 12 18" style="fill: #b07fbe"/>
        <path d="M18,18.75H8a.75.75,0,0,1-.53-1.28l10-10A.75.75,0,0,1,18.75,8V18A.75.75,0,0,1,18,18.75Zm-8.19-1.5h7.44V9.81Z" style="fill: #2e1847"/>
        <path d="M54,25V19H45V67h9V61a18,18,0,0,0,0-36Zm0,30V31a12,12,0,0,1,0,24Z" style="fill: #fff"/>
        <path d="M54,61A18,18,0,0,0,70.08,34.94a16.7,16.7,0,0,0-12.81-6V25.31A18.5,18.5,0,0,0,54,25V23.39H50.91a2,2,0,0,0-2,2V67H54Zm0-30a12,12,0,0,1,10.52,6.23,11.15,11.15,0,0,1-7.25,19.62V54.54A11.74,11.74,0,0,1,54,55Z" style="fill: #b07fbe"/>
        <path d="M54,67.75H45a.75.75,0,0,1-.75-.75V19a.76.76,0,0,1,.75-.75h9a.75.75,0,0,1,.75.75v5.27a18.75,18.75,0,0,1,0,37.47V67A.74.74,0,0,1,54,67.75Zm-8.25-1.5h7.5V61a.76.76,0,0,1,.75-.75,17.25,17.25,0,0,0,0-34.5.75.75,0,0,1-.75-.75V19.75h-7.5ZM54,55.75a.75.75,0,0,1-.75-.75V31a.76.76,0,0,1,.75-.75,12.75,12.75,0,0,1,0,25.5Zm.75-24V54.23a11.25,11.25,0,0,0,0-22.45Z" style="fill: #2e1847"/>
        <path d="M49,61.75H45a.75.75,0,0,1,0-1.5h4a.75.75,0,0,1,0,1.5Z" style="fill: #2e1847"/>
        <path d="M49,55.75H45a.75.75,0,0,1,0-1.5h4a.75.75,0,0,1,0,1.5Z" style="fill: #2e1847"/>
        <path d="M49,49.75H45a.75.75,0,0,1,0-1.5h4a.75.75,0,0,1,0,1.5Z" style="fill: #2e1847"/>
        <path d="M49,43.75H45a.75.75,0,0,1,0-1.5h4a.75.75,0,0,1,0,1.5Z" style="fill: #2e1847"/>
        <path d="M49,37.75H45a.75.75,0,0,1,0-1.5h4a.75.75,0,0,1,0,1.5Z" style="fill: #2e1847"/>
        <path d="M49,31.75H45a.75.75,0,0,1,0-1.5h4a.75.75,0,0,1,0,1.5Z" style="fill: #2e1847"/>
        <path d="M49,25.75H45a.75.75,0,0,1,0-1.5h4a.75.75,0,0,1,0,1.5Z" style="fill: #2e1847"/>
        <path d="M42,61.75H38a.75.75,0,0,1,0-1.5h4a.75.75,0,0,1,0,1.5Z" style="fill: #2e1847"/>
        <path d="M35,68.75a.75.75,0,0,1-.75-.75V64a.75.75,0,0,1,1.5,0v4A.75.75,0,0,1,35,68.75Z" style="fill: #2e1847"/>
        <path d="M42,25.75H38a.75.75,0,0,1,0-1.5h4a.75.75,0,0,1,0,1.5Z" style="fill: #2e1847"/>
        <path d="M20,61.75H16a.75.75,0,0,1,0-1.5h4a.75.75,0,0,1,0,1.5Z" style="fill: #2e1847"/>
        <path d="M20,25.75H16a.75.75,0,0,1,0-1.5h4a.75.75,0,0,1,0,1.5Z" style="fill: #2e1847"/>
        <path d="M35,22.75a.76.76,0,0,1-.75-.75V18a.75.75,0,0,1,1.5,0v4A.76.76,0,0,1,35,22.75Z" style="fill: #2e1847"/>
        <path d="M23,68.75a.74.74,0,0,1-.75-.75V64a.75.75,0,0,1,1.5,0v4A.75.75,0,0,1,23,68.75Z" style="fill: #2e1847"/>
        <path d="M23,22.75a.75.75,0,0,1-.75-.75V18a.75.75,0,0,1,1.5,0v4A.76.76,0,0,1,23,22.75Z" style="fill: #2e1847"/>
        <path d="M15,32.75H11a.75.75,0,0,1,0-1.5h4a.75.75,0,0,1,0,1.5Z" style="fill: #2e1847"/>
        <path d="M13,34.75a.76.76,0,0,1-.75-.75V30a.75.75,0,0,1,1.5,0v4A.76.76,0,0,1,13,34.75Z" style="fill: #2e1847"/>
        <path d="M67,64.75H63a.75.75,0,0,1,0-1.5h4a.75.75,0,0,1,0,1.5Z" style="fill: #2e1847"/>
        <path d="M65,66.75a.75.75,0,0,1-.75-.75V62a.75.75,0,0,1,1.5,0v4A.74.74,0,0,1,65,66.75Z" style="fill: #2e1847"/>
        <path d="M71,23.5H67A.75.75,0,0,1,67,22h4a.75.75,0,0,1,0,1.5Z" style="fill: #2e1847"/>
        <path d="M69,25.5a.75.75,0,0,1-.75-.75v-4a.75.75,0,0,1,1.5,0v4A.75.75,0,0,1,69,25.5Z" style="fill: #2e1847"/>
        <circle cx="69" cy="16.75" r="0.75" style="fill: #2e1847"/>
        <circle cx="69" cy="13.75" r="0.75" style="fill: #2e1847"/>
        <circle cx="69" cy="8.75" r="0.75" style="fill: #2e1847"/>
        <circle cx="17" cy="42" r="2" style="fill: #fff"/>
        <path d="M17,44.75A2.75,2.75,0,1,1,19.75,42,2.75,2.75,0,0,1,17,44.75Zm0-4A1.25,1.25,0,1,0,18.25,42,1.25,1.25,0,0,0,17,40.75Z" style="fill: #2e1847"/>
        <path d="M31,56.75a.75.75,0,0,1-.75-.75V46.22a.75.75,0,0,1,1.5,0V56A.76.76,0,0,1,31,56.75Z" style="fill: #2e1847"/>
        <path d="M31,43a.74.74,0,0,1-.75-.75V40a.75.75,0,0,1,1.5,0v2.21A.75.75,0,0,1,31,43Z" style="fill: #2e1847"/>
      </g>
    </g>
  </g>
</svg>
