<svg id="Warstwa_1" data-name="Warstwa 1" xmlns="http://www.w3.org/2000/svg" viewBox="0 0 348.99 79.99"><title>logo-poziom</title><path d="M42.69,32.51,5.69.84A3.44,3.44,0,0,0,0,3.45V69.06Z" style="fill:#ffffff"/><path d="M3.74,80H88.48a3.62,3.62,0,0,0,3.62-3.61V3.82a3.62,3.62,0,0,0-6-2.74L1.39,73.63A3.61,3.61,0,0,0,3.74,80Z" style="fill:#ffffff"/><path d="M130.13,44.46H130a2.34,2.34,0,0,1-2-1l-6.16-8.62V53a2.24,2.24,0,0,1-.72,1.68,2.35,2.35,0,0,1-1.7.69A2.36,2.36,0,0,1,117.11,53V27.56a2.36,2.36,0,0,1,2.37-2.37h.13a2.13,2.13,0,0,1,1.9,1l8.58,11.9,8.57-11.9a2.31,2.31,0,0,1,1.94-1h.05a2.54,2.54,0,0,1,1.7.73,2.23,2.23,0,0,1,.71,1.64V53a2.43,2.43,0,0,1-2.41,2.37A2.36,2.36,0,0,1,138.28,53V34.85l-6.21,8.62A2.31,2.31,0,0,1,130.13,44.46Z" style="fill:#ffffff"/><path d="M153.68,52.22a11.32,11.32,0,0,1,0-15.24,9.83,9.83,0,0,1,13-1.27,2.75,2.75,0,0,1,.82-1.36,2.15,2.15,0,0,1,1.49-.54,2.08,2.08,0,0,1,1.55.69,2.27,2.27,0,0,1,.67,1.64V53.08a2.17,2.17,0,0,1-.67,1.61,2.1,2.1,0,0,1-1.55.67,2.23,2.23,0,0,1-1.49-.51,2.65,2.65,0,0,1-.82-1.34,10,10,0,0,1-13-1.29Zm1.66-7.61A6.31,6.31,0,0,0,156.92,49,5.17,5.17,0,0,0,161,50.75,5.29,5.29,0,0,0,165.06,49a6.19,6.19,0,0,0,1.62-4.35,6.35,6.35,0,0,0-1.64-4.4A5.29,5.29,0,0,0,161,38.42a5.18,5.18,0,0,0-4,1.79A6.39,6.39,0,0,0,155.34,44.61Z" style="fill:#ffffff"/><path d="M184.4,27.52v.9a2.33,2.33,0,0,1-.67,1.68,2.2,2.2,0,0,1-1.64.69,2.36,2.36,0,0,1-2.35-2.37v-.9a2.36,2.36,0,0,1,2.35-2.33,2.22,2.22,0,0,1,1.64.67A2.27,2.27,0,0,1,184.4,27.52Zm-4,7a2.39,2.39,0,0,1,3.32,0,2.35,2.35,0,0,1,.67,1.71V53a2.25,2.25,0,0,1-.67,1.65,2.22,2.22,0,0,1-1.64.67,2.26,2.26,0,0,1-1.66-.69,2.22,2.22,0,0,1-.69-1.63V36.23A2.31,2.31,0,0,1,180.41,34.52Z" style="fill:#ffffff"/><path d="M192.11,27.56a2.36,2.36,0,0,1,2.37-2.37,2.35,2.35,0,0,1,1.7.69,2.23,2.23,0,0,1,.71,1.68V53a2.23,2.23,0,0,1-.71,1.68,2.35,2.35,0,0,1-1.7.69A2.36,2.36,0,0,1,192.11,53Z" style="fill:#ffffff"/><path d="M203.92,44.72a2.42,2.42,0,0,1-1.79-.76,2.56,2.56,0,0,1,1.79-4.37H212A2.55,2.55,0,0,1,213.81,44a2.42,2.42,0,0,1-1.79.76Z" style="fill:#ffffff"/><path d="M227.33,32.35a10.5,10.5,0,0,0-3.15,7.58,10,10,0,0,0,3.21,7.44,10.44,10.44,0,0,0,7.44,3.08A11.17,11.17,0,0,0,242,48.08a2.33,2.33,0,0,1,1.77-.43A2.38,2.38,0,0,1,246,50.38,2.34,2.34,0,0,1,245,52a15.73,15.73,0,0,1-10,3.36A15.37,15.37,0,0,1,224,50.82a15.11,15.11,0,0,1,0-21.9,15.54,15.54,0,0,1,11.12-4.59,15.73,15.73,0,0,1,10,3.36,2.5,2.5,0,0,1,.91,1.64,2.49,2.49,0,0,1-2.16,2.76,2.23,2.23,0,0,1-1.77-.48,11.27,11.27,0,0,0-14.69.74Z" style="fill:#ffffff"/><path d="M254,52.22A11.32,11.32,0,0,1,254,37a9.57,9.57,0,0,1,7.3-3.17,9.73,9.73,0,0,1,5.74,1.9,2.66,2.66,0,0,1,.81-1.36,2.17,2.17,0,0,1,1.49-.54,2.08,2.08,0,0,1,1.55.69,2.27,2.27,0,0,1,.67,1.64V53.08a2.17,2.17,0,0,1-.67,1.61,2.1,2.1,0,0,1-1.55.67,2.25,2.25,0,0,1-1.49-.51,2.57,2.57,0,0,1-.81-1.34,9.74,9.74,0,0,1-5.74,1.85A9.62,9.62,0,0,1,254,52.22Zm1.66-7.61A6.3,6.3,0,0,0,257.26,49a5.17,5.17,0,0,0,4.05,1.77,5.32,5.32,0,0,0,4.1-1.77A6.23,6.23,0,0,0,267,44.63a6.31,6.31,0,0,0-1.64-4.4,5.29,5.29,0,0,0-4.07-1.81,5.18,5.18,0,0,0-4,1.79A6.38,6.38,0,0,0,255.69,44.61Z" style="fill:#ffffff"/><path d="M287.32,33.81a2.37,2.37,0,0,1,1.71.69,2.24,2.24,0,0,1,.71,1.66,2.42,2.42,0,0,1-2.42,2.39h-1.07v12a2.27,2.27,0,0,1,1.68.71,2.35,2.35,0,0,1,.69,1.7,2.36,2.36,0,0,1-2.37,2.37,4.78,4.78,0,0,1-4.79-4.78v-12h-1.25a2.37,2.37,0,1,1,0-4.74h1.25V27.56a2.27,2.27,0,0,1,.71-1.68,2.37,2.37,0,0,1,1.71-.69,2.36,2.36,0,0,1,2.37,2.37v6.25Z" style="fill:#ffffff"/><path d="M297.73,54.74a3.1,3.1,0,0,1-.92-2.26,3.17,3.17,0,0,1,.92-2.29,3.07,3.07,0,0,1,2.27-.95,3.24,3.24,0,0,1,3.23,3.24,3.05,3.05,0,0,1-1,2.26,3.12,3.12,0,0,1-2.28.92A3.08,3.08,0,0,1,297.73,54.74Z" style="fill:#ffffff"/><path d="M308.92,52.19a10.54,10.54,0,0,1,0-15.19,10.81,10.81,0,0,1,7.71-3.19,11.05,11.05,0,0,1,6.86,2.37,2.25,2.25,0,0,1,.86,1.53,2.13,2.13,0,0,1-.45,1.7,2.28,2.28,0,0,1-1.51.87,2.06,2.06,0,0,1-1.66-.48,7.11,7.11,0,0,0-4.29-1.38,6,6,0,0,0-4.29,1.86,5.93,5.93,0,0,0,0,8.68,6,6,0,0,0,4.29,1.83,7.15,7.15,0,0,0,4.31-1.38,2.08,2.08,0,0,1,1.64-.43,2.3,2.3,0,0,1,1.53.87,2.07,2.07,0,0,1,.45,1.66,2.52,2.52,0,0,1-.86,1.57,11.57,11.57,0,0,1-6.86,2.28A10.59,10.59,0,0,1,308.92,52.19Z" style="fill:#ffffff"/><path d="M333.53,52.19a10.54,10.54,0,0,1,0-15.19,10.85,10.85,0,0,1,7.72-3.19,11,11,0,0,1,6.85,2.37,2.25,2.25,0,0,1,.86,1.53,2.13,2.13,0,0,1-.45,1.7,2.28,2.28,0,0,1-1.51.87,2.06,2.06,0,0,1-1.66-.48,7.09,7.09,0,0,0-4.29-1.38,6,6,0,0,0-4.29,1.86,5.95,5.95,0,0,0,0,8.68A6,6,0,0,0,341,50.79a7.13,7.13,0,0,0,4.31-1.38A2.09,2.09,0,0,1,347,49a2.3,2.3,0,0,1,1.53.87,2.07,2.07,0,0,1,.45,1.66,2.52,2.52,0,0,1-.86,1.57,11.57,11.57,0,0,1-6.85,2.28A10.63,10.63,0,0,1,333.53,52.19Z" style="fill:#ffffff"/></svg>
